<svg xmlns="http://www.w3.org/2000/svg" viewBox="0 0 64 64" fill="none">
  <defs>
    <linearGradient id="g" x1="0" y1="0" x2="1" y2="1">
      <stop offset="0%" stop-color="#7fb0ff"/>
      <stop offset="55%" stop-color="#a78bfa"/>
      <stop offset="100%" stop-color="#5eead4"/>
    </linearGradient>
    <radialGradient id="r" cx="0.3" cy="0.25" r="1">
      <stop offset="0%" stop-color="#ffffff" stop-opacity="0.35"/>
      <stop offset="60%" stop-color="#ffffff" stop-opacity="0.06"/>
      <stop offset="100%" stop-color="#ffffff" stop-opacity="0"/>
    </radialGradient>
  </defs>
  <!-- Fondo -->
  <rect width="64" height="64" rx="15" fill="url(#g)"/>
  <rect width="64" height="64" rx="15" fill="url(#r)"/>
  <!-- Estrella de 4 puntas (Deneb) con vértice brillante -->
  <path d="M32 12 C34.2 22.6 35.8 25.2 47 28 C36.8 30.2 34.2 31.8 32 42 C29.8 31.8 27.2 30.2 17 28 C28.2 25.2 29.8 22.6 32 12 Z" fill="#ffffff"/>
  <!-- Destello central -->
  <circle cx="32" cy="28" r="3.4" fill="#0b0d14" opacity="0.82"/>
  <!-- Rayos pequeños -->
  <path d="M32 4.5 l1.4 3.4 3.4 1.4 -3.4 1.4 -1.4 3.4 -1.4 -3.4 -3.4 -1.4 3.4 -1.4 Z" fill="#ffffff" opacity="0.9"/>
  <path d="M51 45 l1.1 2.7 2.7 1.1 -2.7 1.1 -1.1 2.7 -1.1 -2.7 -2.7 -1.1 2.7 -1.1 Z" fill="#ffffff" opacity="0.65"/>
  <path d="M13 46 l0.9 2.2 2.2 0.9 -2.2 0.9 -0.9 2.2 -0.9 -2.2 -2.2 -0.9 2.2 -0.9 Z" fill="#ffffff" opacity="0.45"/>
</svg>
